<?xml version="1.0" standalone="no"?>
<!DOCTYPE svg PUBLIC "-//W3C//DTD SVG 20010904//EN"
 "http://www.w3.org/TR/2001/REC-SVG-20010904/DTD/svg10.dtd">
<svg version="1.0" xmlns="http://www.w3.org/2000/svg"
 width="93.000000pt" height="95.000000pt" viewBox="0 0 93.000000 95.000000"
 preserveAspectRatio="xMidYMid meet">

<g transform="translate(0.000000,95.000000) scale(0.100000,-0.100000)"
fill="#ffffff" stroke="none">
<path d="M175 754 c-34 -46 -42 -64 -27 -64 4 0 17 -15 30 -33 27 -41 30 -114
6 -184 -43 -126 30 -259 171 -312 30 -12 62 -21 70 -21 8 0 17 -5 21 -11 11
-19 -75 0 -145 32 -35 16 -66 28 -68 26 -2 -2 29 -19 69 -38 67 -31 81 -34
169 -34 94 0 99 1 179 42 l82 42 19 -22 c25 -30 24 -33 -22 -66 -46 -34 -139
-67 -214 -76 -50 -6 -180 10 -200 25 -5 4 -25 11 -43 15 -19 4 -30 11 -26 17
4 7 2 8 -4 4 -14 -8 -61 15 -86 43 -19 21 -19 22 4 46 16 17 30 23 44 20 18
-5 19 -5 4 5 -13 8 -23 7 -38 -2 -18 -11 -23 -10 -43 14 l-23 26 -16 -29 c-10
-16 -12 -29 -7 -29 6 0 13 9 16 21 6 20 6 20 29 -2 19 -17 21 -25 11 -40 -9
-14 -7 -22 7 -37 18 -21 7 -39 -17 -26 -9 5 -9 4 0 -6 9 -10 15 -10 26 -1 11
9 28 5 79 -19 88 -41 197 -63 274 -56 95 10 205 52 262 100 21 18 21 21 6 43
-14 22 -14 25 8 43 28 23 38 25 38 5 0 -8 4 -15 10 -15 6 0 5 10 -2 25 l-11
24 -30 -25 c-19 -16 -36 -22 -48 -19 -11 4 -31 -2 -47 -14 -57 -40 -225 -91
-208 -62 4 6 13 11 21 11 34 0 131 45 168 79 47 42 87 121 87 171 0 19 -7 57
-15 84 -25 82 -20 146 15 195 l31 42 -37 44 -36 45 -254 0 -253 0 -36 -46z
m572 -8 c28 -39 30 -46 17 -57 -31 -25 -44 -68 -44 -142 0 -41 5 -78 11 -84 7
-7 12 -36 12 -65 1 -61 -24 -117 -71 -162 -29 -27 -33 -28 -105 -23 -49 3 -79
1 -86 -6 -9 -9 -11 24 -9 123 l3 135 73 -1 c39 0 72 3 72 7 0 10 -287 6 -297
-5 -4 -4 19 -7 52 -6 33 1 66 2 73 1 9 -1 12 -40 12 -162 l0 -160 -22 7 c-99
30 -137 50 -183 98 -57 58 -80 116 -70 177 4 21 10 41 14 44 13 7 13 153 0
177 -6 13 -20 32 -30 44 -19 20 -19 21 17 62 l36 42 246 0 247 -1 32 -43z"/>
<path d="M327 763 c-4 -3 -7 -11 -7 -17 0 -7 3 -7 8 0 4 7 18 14 32 17 l25 4
-26 2 c-14 0 -29 -2 -32 -6z"/>
<path d="M576 760 c18 -7 54 -73 54 -99 0 -4 -22 -11 -48 -14 -27 -3 -65 -13
-84 -23 -35 -16 -38 -16 -74 1 -21 10 -59 20 -84 22 l-45 3 49 -16 c53 -17 51
-25 -6 -44 -42 -13 -48 -25 -17 -33 17 -5 19 -9 10 -26 -6 -11 -11 -22 -11
-25 0 -13 33 -5 80 19 27 14 55 25 62 25 7 0 41 -13 75 -29 39 -19 65 -26 69
-20 3 6 1 16 -5 22 -17 17 -13 27 17 38 l27 11 -47 17 c-65 23 -67 28 -12 44
27 8 50 21 52 28 1 8 -7 36 -18 62 -16 36 -26 47 -43 46 -22 0 -22 0 -1 -9z"/>
<path d="M423 754 c24 -17 44 -21 58 -10 14 9 10 11 -22 11 -21 0 -37 0 -36
-1z"/>
<path d="M306 713 c-6 -14 -5 -15 5 -6 7 7 10 15 7 18 -3 3 -9 -2 -12 -12z"/>
<path d="M220 468 c0 -5 20 -7 45 -6 25 0 45 5 45 9 0 5 -20 8 -45 7 -25 -1
-45 -6 -45 -10z"/>
<path d="M634 468 c-3 -4 16 -8 41 -8 25 0 44 4 41 9 -7 11 -75 10 -82 -1z"/>
<path d="M256 408 c-43 -68 -4 -138 76 -138 62 0 80 16 26 23 -59 8 -92 46
-85 99 6 44 3 47 -17 16z"/>
<path d="M560 421 c0 -4 -11 -6 -24 -4 -13 3 -27 -1 -31 -8 -6 -9 -1 -10 21
-5 28 7 28 7 10 -13 -11 -12 -17 -23 -14 -26 9 -9 38 7 38 20 0 25 21 27 44 6
24 -23 36 -27 36 -11 0 10 -58 50 -72 50 -5 0 -8 -4 -8 -9z"/>
<path d="M863 201 c17 -6 16 -9 -7 -34 -14 -15 -21 -27 -16 -27 10 0 50 49 50
61 0 5 -10 9 -22 8 -20 0 -21 -1 -5 -8z"/>
<path d="M48 173 c11 -16 30 -37 43 -48 14 -12 10 -4 -9 18 -17 21 -32 42 -32
47 0 6 -5 10 -11 10 -6 0 -2 -12 9 -27z"/>
<path d="M180 171 c0 -5 7 -12 16 -15 14 -5 15 -4 4 9 -14 17 -20 19 -20 6z"/>
<path d="M710 135 c-14 -8 -20 -14 -14 -15 5 0 19 7 30 15 24 18 16 19 -16 0z"/>
<path d="M785 109 c-16 -10 -25 -19 -19 -19 7 0 22 9 35 20 30 24 23 24 -16
-1z"/>
<path d="M558 73 c7 -3 16 -2 19 1 4 3 -2 6 -13 5 -11 0 -14 -3 -6 -6z"/>
</g>
</svg>
